<mxfile host="Electron" modified="2023-04-20T09:12:37.649Z" agent="Mozilla/5.0 (Windows NT 10.0; Win64; x64) AppleWebKit/537.36 (KHTML, like Gecko) draw.io/21.1.2 Chrome/106.0.5249.199 Electron/21.4.3 Safari/537.36" etag="IB5LuJEfBXD2e7YUg-z_" version="21.1.2" type="device">
  <diagram name="第 1 页" id="-3nqvv6s7YnzFgteO_bq">
    <mxGraphModel dx="1036" dy="614" grid="1" gridSize="10" guides="1" tooltips="1" connect="1" arrows="1" fold="1" page="1" pageScale="1" pageWidth="583" pageHeight="827" math="0" shadow="0">
      <root>
        <mxCell id="0" />
        <mxCell id="1" parent="0" />
        <mxCell id="Ej11A40TjEGv-Et7twY0-8" value="存储订单" style="edgeStyle=orthogonalEdgeStyle;rounded=0;orthogonalLoop=1;jettySize=auto;html=1;" parent="1" source="Ej11A40TjEGv-Et7twY0-1" target="Ej11A40TjEGv-Et7twY0-2" edge="1">
          <mxGeometry relative="1" as="geometry" />
        </mxCell>
        <mxCell id="Ej11A40TjEGv-Et7twY0-9" value="发送订单" style="edgeStyle=orthogonalEdgeStyle;rounded=0;orthogonalLoop=1;jettySize=auto;html=1;curved=1;exitX=1;exitY=0.5;exitDx=0;exitDy=0;entryX=0;entryY=0.5;entryDx=0;entryDy=0;" parent="1" source="Ej11A40TjEGv-Et7twY0-1" target="Ej11A40TjEGv-Et7twY0-5" edge="1">
          <mxGeometry relative="1" as="geometry">
            <Array as="points">
              <mxPoint x="320" y="240" />
              <mxPoint x="320" y="240" />
            </Array>
          </mxGeometry>
        </mxCell>
        <mxCell id="hRnOgPXbPlWr9jqxERhN-2" style="edgeStyle=orthogonalEdgeStyle;rounded=0;orthogonalLoop=1;jettySize=auto;html=1;exitX=0.5;exitY=1;exitDx=0;exitDy=0;entryX=0.5;entryY=0;entryDx=0;entryDy=0;startArrow=classic;startFill=1;" parent="1" source="Ej11A40TjEGv-Et7twY0-1" target="hRnOgPXbPlWr9jqxERhN-1" edge="1">
          <mxGeometry relative="1" as="geometry" />
        </mxCell>
        <mxCell id="hRnOgPXbPlWr9jqxERhN-3" value="存储订单状态" style="edgeLabel;html=1;align=center;verticalAlign=middle;resizable=0;points=[];" parent="hRnOgPXbPlWr9jqxERhN-2" vertex="1" connectable="0">
          <mxGeometry x="0.2075" y="1" relative="1" as="geometry">
            <mxPoint x="-17" as="offset" />
          </mxGeometry>
        </mxCell>
        <mxCell id="Ej11A40TjEGv-Et7twY0-1" value="订单系统" style="rounded=0;whiteSpace=wrap;html=1;" parent="1" vertex="1">
          <mxGeometry x="160" y="200" width="120" height="80" as="geometry" />
        </mxCell>
        <mxCell id="Ej11A40TjEGv-Et7twY0-2" value="订单表" style="rounded=0;whiteSpace=wrap;html=1;" parent="1" vertex="1">
          <mxGeometry x="80" y="360" width="120" height="80" as="geometry" />
        </mxCell>
        <mxCell id="Ej11A40TjEGv-Et7twY0-7" value="下单" style="edgeStyle=orthogonalEdgeStyle;rounded=0;orthogonalLoop=1;jettySize=auto;html=1;" parent="1" source="Ej11A40TjEGv-Et7twY0-4" target="Ej11A40TjEGv-Et7twY0-1" edge="1">
          <mxGeometry relative="1" as="geometry" />
        </mxCell>
        <mxCell id="Ej11A40TjEGv-Et7twY0-4" value="" style="shape=actor;whiteSpace=wrap;html=1;" parent="1" vertex="1">
          <mxGeometry x="40" y="210" width="40" height="60" as="geometry" />
        </mxCell>
        <mxCell id="Ej11A40TjEGv-Et7twY0-12" value="获取消息" style="edgeStyle=orthogonalEdgeStyle;rounded=0;orthogonalLoop=1;jettySize=auto;html=1;" parent="1" source="Ej11A40TjEGv-Et7twY0-5" target="Ej11A40TjEGv-Et7twY0-10" edge="1">
          <mxGeometry relative="1" as="geometry">
            <Array as="points">
              <mxPoint x="600" y="260" />
              <mxPoint x="600" y="260" />
            </Array>
          </mxGeometry>
        </mxCell>
        <mxCell id="Ej11A40TjEGv-Et7twY0-14" style="edgeStyle=orthogonalEdgeStyle;rounded=0;orthogonalLoop=1;jettySize=auto;html=1;exitX=0.5;exitY=0;exitDx=0;exitDy=0;entryX=0.5;entryY=0;entryDx=0;entryDy=0;" parent="1" source="Ej11A40TjEGv-Et7twY0-5" target="Ej11A40TjEGv-Et7twY0-1" edge="1">
          <mxGeometry relative="1" as="geometry" />
        </mxCell>
        <mxCell id="Ej11A40TjEGv-Et7twY0-15" value="返回ACK" style="edgeLabel;html=1;align=center;verticalAlign=middle;resizable=0;points=[];" parent="Ej11A40TjEGv-Et7twY0-14" vertex="1" connectable="0">
          <mxGeometry x="0.22" y="-1" relative="1" as="geometry">
            <mxPoint as="offset" />
          </mxGeometry>
        </mxCell>
        <mxCell id="Xmsoez5hfljNx1u3OXHy-4" value="返回ACK" style="edgeStyle=orthogonalEdgeStyle;rounded=0;orthogonalLoop=1;jettySize=auto;html=1;exitX=0.75;exitY=1;exitDx=0;exitDy=0;entryX=0.75;entryY=0;entryDx=0;entryDy=0;" edge="1" parent="1" source="Ej11A40TjEGv-Et7twY0-5" target="Xmsoez5hfljNx1u3OXHy-1">
          <mxGeometry relative="1" as="geometry" />
        </mxCell>
        <mxCell id="Ej11A40TjEGv-Et7twY0-5" value="RabbitMQ" style="rounded=0;whiteSpace=wrap;html=1;" parent="1" vertex="1">
          <mxGeometry x="440" y="200" width="120" height="80" as="geometry" />
        </mxCell>
        <mxCell id="Ej11A40TjEGv-Et7twY0-13" value="" style="edgeStyle=orthogonalEdgeStyle;rounded=0;orthogonalLoop=1;jettySize=auto;html=1;" parent="1" source="Ej11A40TjEGv-Et7twY0-10" target="Ej11A40TjEGv-Et7twY0-11" edge="1">
          <mxGeometry relative="1" as="geometry" />
        </mxCell>
        <mxCell id="Xmsoez5hfljNx1u3OXHy-5" value="返回ACK" style="edgeStyle=orthogonalEdgeStyle;rounded=0;orthogonalLoop=1;jettySize=auto;html=1;" edge="1" parent="1" source="Ej11A40TjEGv-Et7twY0-10" target="Ej11A40TjEGv-Et7twY0-5">
          <mxGeometry relative="1" as="geometry">
            <Array as="points">
              <mxPoint x="600" y="220" />
              <mxPoint x="600" y="220" />
            </Array>
          </mxGeometry>
        </mxCell>
        <mxCell id="Ej11A40TjEGv-Et7twY0-10" value="配送系统" style="rounded=0;whiteSpace=wrap;html=1;" parent="1" vertex="1">
          <mxGeometry x="640" y="200" width="120" height="80" as="geometry" />
        </mxCell>
        <mxCell id="Ej11A40TjEGv-Et7twY0-11" value="配送表" style="rounded=0;whiteSpace=wrap;html=1;" parent="1" vertex="1">
          <mxGeometry x="640" y="360" width="120" height="80" as="geometry" />
        </mxCell>
        <mxCell id="Xmsoez5hfljNx1u3OXHy-2" value="获取异常消息" style="edgeStyle=orthogonalEdgeStyle;rounded=0;orthogonalLoop=1;jettySize=auto;html=1;" edge="1" parent="1" source="hRnOgPXbPlWr9jqxERhN-1" target="Xmsoez5hfljNx1u3OXHy-1">
          <mxGeometry y="20" relative="1" as="geometry">
            <mxPoint as="offset" />
          </mxGeometry>
        </mxCell>
        <mxCell id="hRnOgPXbPlWr9jqxERhN-1" value="状态临时表" style="rounded=0;whiteSpace=wrap;html=1;" parent="1" vertex="1">
          <mxGeometry x="240" y="360" width="120" height="80" as="geometry" />
        </mxCell>
        <mxCell id="Xmsoez5hfljNx1u3OXHy-3" value="重发消息" style="edgeStyle=orthogonalEdgeStyle;rounded=0;orthogonalLoop=1;jettySize=auto;html=1;" edge="1" parent="1" source="Xmsoez5hfljNx1u3OXHy-1" target="Ej11A40TjEGv-Et7twY0-5">
          <mxGeometry relative="1" as="geometry">
            <Array as="points">
              <mxPoint x="480" y="340" />
              <mxPoint x="480" y="340" />
            </Array>
          </mxGeometry>
        </mxCell>
        <mxCell id="Xmsoez5hfljNx1u3OXHy-1" value="异常消息重发" style="rounded=0;whiteSpace=wrap;html=1;" vertex="1" parent="1">
          <mxGeometry x="440" y="360" width="120" height="80" as="geometry" />
        </mxCell>
        <mxCell id="Xmsoez5hfljNx1u3OXHy-9" style="edgeStyle=orthogonalEdgeStyle;rounded=0;orthogonalLoop=1;jettySize=auto;html=1;entryX=0.673;entryY=-0.022;entryDx=0;entryDy=0;entryPerimeter=0;" edge="1" parent="1" source="Xmsoez5hfljNx1u3OXHy-6" target="Ej11A40TjEGv-Et7twY0-5">
          <mxGeometry relative="1" as="geometry" />
        </mxCell>
        <mxCell id="Xmsoez5hfljNx1u3OXHy-10" value="获取消息和返回ACK" style="edgeLabel;html=1;align=center;verticalAlign=middle;resizable=0;points=[];" vertex="1" connectable="0" parent="Xmsoez5hfljNx1u3OXHy-9">
          <mxGeometry x="-0.0843" y="-1" relative="1" as="geometry">
            <mxPoint x="20" y="-9" as="offset" />
          </mxGeometry>
        </mxCell>
        <mxCell id="Xmsoez5hfljNx1u3OXHy-6" value="异常消息处理" style="rounded=0;whiteSpace=wrap;html=1;" vertex="1" parent="1">
          <mxGeometry x="640" y="80" width="120" height="80" as="geometry" />
        </mxCell>
      </root>
    </mxGraphModel>
  </diagram>
</mxfile>
